<svg width="24" height="21" viewBox="0 0 24 21" fill="none" xmlns="http://www.w3.org/2000/svg">
<path d="M11.1119 1.0638C11.4238 0.169675 12.6883 0.169677 13.0003 1.06381L15.0336 6.89205C15.1737 7.29363 15.5525 7.56265 15.9778 7.56265H22.3978C23.3837 7.56265 23.7747 8.83838 22.9582 9.39086L17.8895 12.8206C17.5139 13.0748 17.3564 13.55 17.5058 13.9782L19.4702 19.609C19.7873 20.5179 18.7629 21.3061 17.9656 20.7666L12.6165 17.1471C12.278 16.918 11.8342 16.918 11.4956 17.1471L6.14653 20.7666C5.34924 21.3061 4.32482 20.5179 4.64193 19.609L6.60635 13.9782C6.75576 13.55 6.59823 13.0748 6.22258 12.8206L1.15388 9.39086C0.337388 8.83838 0.728443 7.56265 1.7143 7.56265H8.13436C8.55967 7.56265 8.93845 7.29363 9.07855 6.89205L11.1119 1.0638Z" fill="#E5E5E5"/>
</svg>
