<svg width="23" height="21" viewBox="0 0 23 21" fill="none" xmlns="http://www.w3.org/2000/svg">
<path d="M10.6011 1.0638C10.9131 0.169675 12.1776 0.169677 12.4895 1.06381L14.5228 6.89205C14.6629 7.29363 15.0417 7.56265 15.467 7.56265H21.8871C22.8729 7.56265 23.264 8.83838 22.4475 9.39086L17.3788 12.8206C17.0032 13.0748 16.8456 13.55 16.995 13.9782L18.9595 19.609C19.2766 20.5179 18.2521 21.3061 17.4549 20.7666L12.1057 17.1471C11.7672 16.918 11.3234 16.918 10.9849 17.1471L5.63579 20.7666C4.8385 21.3061 3.81408 20.5179 4.13119 19.609L6.09561 13.9782C6.24502 13.55 6.08749 13.0748 5.71184 12.8206L0.643143 9.39086C-0.173354 8.83838 0.217701 7.56265 1.20356 7.56265H7.62361C8.04893 7.56265 8.4277 7.29363 8.5678 6.89205L10.6011 1.0638Z" fill="#070707"/>
</svg>
